<svg width="884" height="728" viewBox="0 0 884 728" fill="none" xmlns="http://www.w3.org/2000/svg">
<path fill-rule="evenodd" clip-rule="evenodd" d="M364.005 728.009C565.039 728.009 728.009 565.039 728.009 364.005C728.009 162.97 565.039 0 364.005 0C162.97 0 0 162.97 0 364.005C0 565.039 162.97 728.009 364.005 728.009ZM364.006 563.62C474.25 563.62 563.621 474.249 563.621 364.005C563.621 253.76 474.25 164.389 364.006 164.389C253.761 164.389 164.39 253.76 164.39 364.005C164.39 474.249 253.761 563.62 364.006 563.62Z" fill="#0F4FC4"/>
<path fill-rule="evenodd" clip-rule="evenodd" d="M519.906 728.009C720.94 728.009 883.91 565.039 883.91 364.005C883.91 162.97 720.94 0 519.906 0C318.872 0 155.901 162.97 155.901 364.005C155.901 565.039 318.872 728.009 519.906 728.009ZM519.907 563.62C630.152 563.62 719.522 474.249 719.522 364.005C719.522 253.76 630.152 164.389 519.907 164.389C409.663 164.389 320.292 253.76 320.292 364.005C320.292 474.249 409.663 563.62 519.907 563.62Z" fill="#07D679"/>
</svg>
