<svg width="894" height="207" viewBox="0 0 894 207" fill="none" xmlns="http://www.w3.org/2000/svg">
<path d="M802.08 206.233C781.534 206.233 763.85 202.072 749.026 193.75C734.289 185.341 722.933 173.465 714.957 158.121C706.982 142.69 702.994 124.442 702.994 103.377C702.994 82.8313 706.982 64.8 714.957 49.2827C722.933 33.7653 734.159 21.6722 748.636 13.0033C763.2 4.33444 780.277 0 799.869 0C813.046 0 825.312 2.12388 836.668 6.37163C848.111 10.5327 858.081 16.8176 866.576 25.2265C875.158 33.6353 881.833 44.2114 886.601 56.9546C891.369 69.6112 893.753 84.435 893.753 101.426V116.64H725.1V82.3111H841.61C841.61 74.3358 839.876 67.2706 836.408 61.1157C832.941 54.9608 828.13 50.1495 821.975 46.682C815.906 43.1277 808.841 41.3506 800.779 41.3506C792.37 41.3506 784.915 43.3011 778.413 47.2021C771.999 51.0164 766.971 56.1744 763.33 62.6761C759.689 69.0911 757.825 76.2429 757.738 84.1316V116.77C757.738 126.653 759.559 135.191 763.2 142.387C766.927 149.582 772.172 155.13 778.934 159.031C785.695 162.932 793.714 164.882 802.99 164.882C809.145 164.882 814.78 164.015 819.894 162.282C825.009 160.548 829.387 157.947 833.028 154.48C836.669 151.012 839.443 146.764 841.35 141.736L892.583 145.117C889.982 157.427 884.651 168.177 876.589 177.366C868.613 186.468 858.297 193.576 845.641 198.691C833.071 203.719 818.55 206.233 802.08 206.233Z" fill="#00B060"/>
<path d="M705.018 59.5553L654.305 62.6761C653.438 58.3416 651.574 54.4406 648.713 50.9731C645.852 47.4188 642.081 44.6015 637.4 42.5209C632.806 40.3537 627.301 39.2701 620.886 39.2701C612.304 39.2701 605.065 41.0905 599.17 44.7315C593.276 48.2857 590.328 53.0536 590.328 59.0352C590.328 63.803 592.235 67.8341 596.05 71.1283C599.864 74.4225 606.409 77.0665 615.685 79.0603L651.834 86.3422C671.252 90.3299 685.729 96.7449 695.265 105.587C704.801 114.429 709.569 126.046 709.569 140.436C709.569 153.526 705.711 165.012 697.996 174.895C690.367 184.777 679.878 192.493 666.528 198.041C653.264 203.502 637.964 206.233 620.626 206.233C594.186 206.233 573.12 200.728 557.43 189.719C541.826 178.623 532.68 163.539 529.993 144.467L584.477 141.606C586.124 149.668 590.111 155.823 596.44 160.071C602.768 164.232 610.873 166.313 620.756 166.313C630.465 166.313 638.267 164.449 644.162 160.721C650.144 156.907 653.178 152.009 653.264 146.028C653.178 141 651.054 136.882 646.893 133.674C642.732 130.38 636.317 127.866 627.648 126.132L593.059 119.241C573.554 115.34 559.033 108.578 549.498 98.9554C540.049 89.333 535.324 77.0665 535.324 62.156C535.324 49.326 538.792 38.2732 545.727 28.9974C552.749 19.7217 562.588 12.5699 575.244 7.54192C587.988 2.51397 602.898 0 619.976 0C645.202 0 665.054 5.33136 679.531 15.9941C694.095 26.6568 702.59 41.1772 705.018 59.5553Z" fill="#00B060"/>
<path d="M475.8 202.332V2.60083H531.194V202.332H475.8Z" fill="#00B060"/>
<path d="M233.792 202.332L179.438 2.60083H235.483L266.431 136.795H268.251L300.5 2.60083H355.504L388.272 136.015H389.963L420.39 2.60083H476.305L422.081 202.332H363.436L329.107 76.7199H326.636L292.307 202.332H233.792Z" fill="#0F4FC4"/>
<path d="M128.083 117.29V2.60083H183.477V202.332H130.293V166.053H128.213C123.705 177.756 116.207 187.162 105.717 194.27C95.3145 201.379 82.6146 204.933 67.6174 204.933C54.2673 204.933 42.5209 201.899 32.3783 195.83C22.2357 189.762 14.3037 181.137 8.5822 169.954C2.94742 158.771 0.0866889 145.378 0 129.774V2.60083H55.3942V119.891C55.4809 131.681 58.6451 141 64.8867 147.848C71.1283 154.697 79.4938 158.121 89.9831 158.121C96.6582 158.121 102.9 156.604 108.708 153.57C114.516 150.449 119.197 145.854 122.752 139.786C126.392 133.718 128.17 126.219 128.083 117.29Z" fill="#0F4FC4"/>
</svg>
